<svg height="512" viewBox="0 0 128 128" width="512" xmlns="http://www.w3.org/2000/svg"><g id="Circle_Grid" data-name="Circle Grid"><circle cx="64" cy="64" fill="#3b5059" r="64"/></g><g id="icon"><path d="m64.074 57.5a1.449 1.449 0 0 1 -1.449-1.449v-6.36a.318.318 0 0 0 -.211-.316 7.563 7.563 0 1 1 9.049-9 1.384 1.384 0 0 0 .313.595 1.449 1.449 0 0 1 -.157 2.89c-1.534 0-2.685-1.476-2.989-2.866a4.661 4.661 0 0 0 -4.739-3.657 4.736 4.736 0 0 0 -4.477 4.477 4.665 4.665 0 0 0 3.633 4.734 3.225 3.225 0 0 1 2.476 3.145v6.357a1.449 1.449 0 0 1 -1.449 1.45z" fill="#eeefee"/><path d="m22.993 81.694h82.014v3.14h-82.014z" fill="#eaa14e"/><path d="m107 83.463v1.363a.74.74 0 0 1 -1.1.647l-41.9-23.225-41.9 23.225a.74.74 0 0 1 -1.1-.647v-1.363a3.427 3.427 0 0 1 1.706-2.957l30.273-17.476a2.756 2.756 0 0 0 1.155-1.3l2.788-6.5a2.759 2.759 0 0 1 2.535-1.672h9.085a2.759 2.759 0 0 1 2.535 1.672l2.788 6.5a2.756 2.756 0 0 0 1.155 1.3l30.274 17.475a3.427 3.427 0 0 1 1.706 2.958z" fill="#f6b863"/><circle cx="64" cy="56.45" fill="#575b6d" r="1.208"/></g></svg>